<svg width="75" height="54" viewBox="0 0 75 54" fill="none" xmlns="http://www.w3.org/2000/svg">
<path d="M47.4667 0C47.4133 0 47.4133 0 47.4133 0C40.4267 0 33.8133 2.72 28.8533 7.57333C26.3467 6.50667 23.5733 5.92 20.7467 5.92C9.33333 5.92 0 15.2 0 26.6667C0 38.1333 9.28 47.4133 20.7467 47.4133C23.52 47.4133 26.2933 46.8267 28.8 45.76C33.6 50.4533 40.16 53.3333 47.36 53.3333C62.08 53.3333 74.0267 41.3867 74.0267 26.6667C74.08 12 62.1333 0 47.4667 0ZM47.4133 47.4133C36 47.4133 26.6667 38.1333 26.6667 26.6667H20.7467C20.7467 31.8933 22.24 36.8 24.8533 40.9067C23.52 41.28 22.1333 41.4933 20.7467 41.4933C12.5867 41.4933 5.92 34.8267 5.92 26.6667C5.92 18.5067 12.5867 11.84 20.7467 11.84C24 11.84 27.04 12.8533 29.6533 14.8267C33.44 17.6533 35.5733 21.9733 35.5733 26.6667H41.5467C41.5467 20.48 38.88 14.72 34.1333 10.7733C37.8667 7.68 42.56 5.92 47.4667 5.92C58.88 5.92 68.2133 15.2533 68.2133 26.6667C68.16 38.08 58.88 47.4133 47.4133 47.4133Z" fill="white"/>
</svg>
